<mxfile host="Electron" modified="2024-04-04T22:25:12.469Z" agent="Mozilla/5.0 (Windows NT 10.0; Win64; x64) AppleWebKit/537.36 (KHTML, like Gecko) draw.io/24.1.0 Chrome/120.0.6099.109 Electron/28.1.0 Safari/537.36" etag="h3Z0IFZRfOls6cQ7mbe-" version="24.1.0" type="device">
  <diagram name="Page-1" id="M8GImtX7W732KPLTwruv">
    <mxGraphModel dx="1409" dy="431" grid="1" gridSize="10" guides="1" tooltips="1" connect="1" arrows="1" fold="1" page="1" pageScale="1" pageWidth="850" pageHeight="1100" math="0" shadow="0">
      <root>
        <mxCell id="0" />
        <mxCell id="1" parent="0" />
        <mxCell id="VCWsMaXhS-fxeMUfbvEo-6" style="edgeStyle=orthogonalEdgeStyle;rounded=0;orthogonalLoop=1;jettySize=auto;html=1;entryX=0;entryY=0.25;entryDx=0;entryDy=0;" parent="1" source="VCWsMaXhS-fxeMUfbvEo-2" target="VCWsMaXhS-fxeMUfbvEo-3" edge="1">
          <mxGeometry relative="1" as="geometry">
            <Array as="points">
              <mxPoint x="260" y="415" />
              <mxPoint x="260" y="415" />
            </Array>
          </mxGeometry>
        </mxCell>
        <mxCell id="VCWsMaXhS-fxeMUfbvEo-2" value="API / DB&lt;div&gt;(optional)&lt;/div&gt;" style="rounded=0;whiteSpace=wrap;html=1;fillColor=#d5e8d4;strokeColor=#82b366;" parent="1" vertex="1">
          <mxGeometry x="110" y="400" width="140" height="60" as="geometry" />
        </mxCell>
        <mxCell id="VCWsMaXhS-fxeMUfbvEo-7" style="edgeStyle=orthogonalEdgeStyle;rounded=0;orthogonalLoop=1;jettySize=auto;html=1;exitX=0;exitY=0.75;exitDx=0;exitDy=0;entryX=1;entryY=0.75;entryDx=0;entryDy=0;" parent="1" source="VCWsMaXhS-fxeMUfbvEo-3" target="VCWsMaXhS-fxeMUfbvEo-2" edge="1">
          <mxGeometry relative="1" as="geometry" />
        </mxCell>
        <mxCell id="VCWsMaXhS-fxeMUfbvEo-8" style="edgeStyle=orthogonalEdgeStyle;rounded=0;orthogonalLoop=1;jettySize=auto;html=1;exitX=0.25;exitY=0;exitDx=0;exitDy=0;entryX=0.25;entryY=1;entryDx=0;entryDy=0;dashed=1;" parent="1" source="VCWsMaXhS-fxeMUfbvEo-3" target="VCWsMaXhS-fxeMUfbvEo-4" edge="1">
          <mxGeometry relative="1" as="geometry" />
        </mxCell>
        <mxCell id="rGmVaaIeu4jjw2mhWuXg-2" value="Event Emitter&lt;div&gt;(Notify)&lt;/div&gt;" style="edgeLabel;html=1;align=center;verticalAlign=middle;resizable=0;points=[];" vertex="1" connectable="0" parent="VCWsMaXhS-fxeMUfbvEo-8">
          <mxGeometry x="-0.1309" y="2" relative="1" as="geometry">
            <mxPoint y="-7" as="offset" />
          </mxGeometry>
        </mxCell>
        <mxCell id="VCWsMaXhS-fxeMUfbvEo-3" value="Model" style="rounded=0;whiteSpace=wrap;html=1;fillColor=#dae8fc;strokeColor=#6c8ebf;" parent="1" vertex="1">
          <mxGeometry x="365" y="400" width="120" height="60" as="geometry" />
        </mxCell>
        <mxCell id="VCWsMaXhS-fxeMUfbvEo-10" value="Update" style="edgeStyle=orthogonalEdgeStyle;rounded=0;orthogonalLoop=1;jettySize=auto;html=1;exitX=0.75;exitY=1;exitDx=0;exitDy=0;entryX=0.75;entryY=0;entryDx=0;entryDy=0;" parent="1" source="VCWsMaXhS-fxeMUfbvEo-4" target="VCWsMaXhS-fxeMUfbvEo-3" edge="1">
          <mxGeometry relative="1" as="geometry" />
        </mxCell>
        <mxCell id="VCWsMaXhS-fxeMUfbvEo-12" value="&amp;nbsp;Binding&amp;nbsp;" style="edgeStyle=orthogonalEdgeStyle;rounded=0;orthogonalLoop=1;jettySize=auto;html=1;exitX=0;exitY=0.75;exitDx=0;exitDy=0;entryX=1;entryY=0.75;entryDx=0;entryDy=0;" parent="1" source="VCWsMaXhS-fxeMUfbvEo-4" target="VCWsMaXhS-fxeMUfbvEo-5" edge="1">
          <mxGeometry relative="1" as="geometry" />
        </mxCell>
        <mxCell id="VCWsMaXhS-fxeMUfbvEo-4" value="ViewModel" style="rounded=0;whiteSpace=wrap;html=1;fillColor=#e1d5e7;strokeColor=#9673a6;" parent="1" vertex="1">
          <mxGeometry x="365" y="230" width="120" height="60" as="geometry" />
        </mxCell>
        <mxCell id="VCWsMaXhS-fxeMUfbvEo-11" value="&amp;nbsp;Event&amp;nbsp;" style="edgeStyle=orthogonalEdgeStyle;rounded=0;orthogonalLoop=1;jettySize=auto;html=1;exitX=1;exitY=0.25;exitDx=0;exitDy=0;entryX=0;entryY=0.25;entryDx=0;entryDy=0;" parent="1" source="VCWsMaXhS-fxeMUfbvEo-5" target="VCWsMaXhS-fxeMUfbvEo-4" edge="1">
          <mxGeometry relative="1" as="geometry" />
        </mxCell>
        <mxCell id="VCWsMaXhS-fxeMUfbvEo-21" style="edgeStyle=orthogonalEdgeStyle;rounded=0;orthogonalLoop=1;jettySize=auto;html=1;entryX=1;entryY=0.5;entryDx=0;entryDy=0;dashed=1;" parent="1" source="VCWsMaXhS-fxeMUfbvEo-5" target="VCWsMaXhS-fxeMUfbvEo-20" edge="1">
          <mxGeometry relative="1" as="geometry" />
        </mxCell>
        <mxCell id="VCWsMaXhS-fxeMUfbvEo-22" style="edgeStyle=orthogonalEdgeStyle;rounded=0;orthogonalLoop=1;jettySize=auto;html=1;entryX=1;entryY=0.5;entryDx=0;entryDy=0;dashed=1;" parent="1" source="VCWsMaXhS-fxeMUfbvEo-5" target="VCWsMaXhS-fxeMUfbvEo-19" edge="1">
          <mxGeometry relative="1" as="geometry" />
        </mxCell>
        <mxCell id="VCWsMaXhS-fxeMUfbvEo-23" style="edgeStyle=orthogonalEdgeStyle;rounded=0;orthogonalLoop=1;jettySize=auto;html=1;entryX=1;entryY=0.5;entryDx=0;entryDy=0;dashed=1;" parent="1" source="VCWsMaXhS-fxeMUfbvEo-5" target="VCWsMaXhS-fxeMUfbvEo-18" edge="1">
          <mxGeometry relative="1" as="geometry" />
        </mxCell>
        <mxCell id="VCWsMaXhS-fxeMUfbvEo-5" value="Event&lt;div&gt;(Contract / Observable)&lt;/div&gt;" style="rounded=0;whiteSpace=wrap;html=1;fillColor=#ffe6cc;strokeColor=#d79b00;" parent="1" vertex="1">
          <mxGeometry x="110" y="230" width="140" height="60" as="geometry" />
        </mxCell>
        <mxCell id="VCWsMaXhS-fxeMUfbvEo-24" style="edgeStyle=orthogonalEdgeStyle;rounded=0;orthogonalLoop=1;jettySize=auto;html=1;" parent="1" source="VCWsMaXhS-fxeMUfbvEo-15" target="VCWsMaXhS-fxeMUfbvEo-19" edge="1">
          <mxGeometry relative="1" as="geometry" />
        </mxCell>
        <mxCell id="VCWsMaXhS-fxeMUfbvEo-15" value="User" style="sketch=0;outlineConnect=0;fontColor=#232F3E;gradientColor=none;fillColor=#232F3D;strokeColor=none;dashed=0;verticalLabelPosition=bottom;verticalAlign=top;align=center;html=1;fontSize=12;fontStyle=0;aspect=fixed;pointerEvents=1;shape=mxgraph.aws4.user;" parent="1" vertex="1">
          <mxGeometry x="-240" y="221" width="78" height="78" as="geometry" />
        </mxCell>
        <mxCell id="VCWsMaXhS-fxeMUfbvEo-18" value="View_v1 (Observer)" style="rounded=0;whiteSpace=wrap;html=1;fillColor=#ffe6cc;strokeColor=#d79b00;" parent="1" vertex="1">
          <mxGeometry x="-60" y="145" width="120" height="60" as="geometry" />
        </mxCell>
        <mxCell id="VCWsMaXhS-fxeMUfbvEo-19" value="View_v2 (Observer)" style="rounded=0;whiteSpace=wrap;html=1;fillColor=#ffe6cc;strokeColor=#d79b00;" parent="1" vertex="1">
          <mxGeometry x="-60" y="230" width="120" height="60" as="geometry" />
        </mxCell>
        <mxCell id="VCWsMaXhS-fxeMUfbvEo-20" value="View_v3&amp;nbsp;(Observer)" style="rounded=0;whiteSpace=wrap;html=1;fillColor=#ffe6cc;strokeColor=#d79b00;" parent="1" vertex="1">
          <mxGeometry x="-60" y="315" width="120" height="60" as="geometry" />
        </mxCell>
      </root>
    </mxGraphModel>
  </diagram>
</mxfile>
